<svg width="24" height="24" viewBox="0 0 24 24" fill="none" xmlns="http://www.w3.org/2000/svg">
<path d="M21.849 20.1511L17.242 15.5441C18.327 14.1061 18.978 12.3241 18.978 10.3881C18.978 5.65207 15.124 1.79907 10.389 1.79907C5.65299 1.80007 1.79999 5.65307 1.79999 10.3891C1.79999 15.1241 5.65299 18.9781 10.389 18.9781C12.324 18.9781 14.107 18.3271 15.545 17.2421L20.152 21.8491C20.386 22.0831 20.693 22.2001 21 22.2001C21.307 22.2001 21.614 22.0831 21.849 21.8481C22.317 21.3801 22.317 20.6201 21.849 20.1511ZM4.19999 10.3891C4.19999 6.97607 6.97599 4.20007 10.389 4.20007C13.801 4.20007 16.577 6.97607 16.577 10.3881C16.577 13.8001 13.801 16.5761 10.389 16.5761C6.97599 16.5771 4.19999 13.8011 4.19999 10.3891Z" fill="#909090"/>
</svg>
