<svg width="24" height="24" viewBox="0 0 24 24" fill="none" xmlns="http://www.w3.org/2000/svg">
<path d="M4.14334 4.85714V19.1429C4.14334 19.5357 4.46484 19.8571 4.85778 19.8571H19.1467C19.5396 19.8571 19.8611 19.5357 19.8611 19.1429V8.18304C19.8611 7.99554 19.7852 7.8125 19.6513 7.67857L21.165 6.16518C21.7008 6.70089 22 7.42857 22 8.1875V19.1429C22 20.7187 20.7185 22 19.1422 22H4.85778C3.28154 22 2 20.7187 2 19.1429V4.85714C2 3.28125 3.28154 2 4.85778 2H15.82C16.5791 2 17.307 2.29911 17.8428 2.83482L21.1695 6.16071L19.6557 7.67411L16.3246 4.35268C16.3112 4.33929 16.3023 4.33036 16.2889 4.31696V8.78571C16.2889 9.37946 15.8111 9.85714 15.2172 9.85714H6.64389C6.05001 9.85714 5.57223 9.37946 5.57223 8.78571V4.14286H4.85778C4.46484 4.14286 4.14334 4.46429 4.14334 4.85714ZM7.71556 4.14286V7.71429H14.1456V4.14286H7.71556ZM9.14445 14.8571C9.14445 14.0994 9.44554 13.3727 9.98148 12.8368C10.5174 12.301 11.2443 12 12.0022 12C12.7602 12 13.4871 12.301 14.023 12.8368C14.5589 13.3727 14.86 14.0994 14.86 14.8571C14.86 15.6149 14.5589 16.3416 14.023 16.8774C13.4871 17.4133 12.7602 17.7143 12.0022 17.7143C11.2443 17.7143 10.5174 17.4133 9.98148 16.8774C9.44554 16.3416 9.14445 15.6149 9.14445 14.8571Z" fill="#909090"/>
</svg>
