<svg width="24" height="25" viewBox="0 0 24 25" fill="none" xmlns="http://www.w3.org/2000/svg">
<path fill-rule="evenodd" clip-rule="evenodd" d="M20.967 12.862C20.6535 12.8074 20.3312 12.8796 20.0709 13.0626C19.8106 13.2456 19.6337 13.5246 19.579 13.838C19.2676 15.6268 18.3341 17.248 16.9432 18.415C15.5523 19.5821 13.7936 20.22 11.978 20.216C7.72398 20.216 4.26298 16.755 4.26298 12.5C4.26298 8.24602 7.72398 4.78502 11.978 4.78502C13.912 4.78502 15.731 5.49902 17.153 6.78902L16.161 7.78102C16.0312 7.9103 15.9398 8.07306 15.897 8.25117C15.8543 8.42929 15.8617 8.61579 15.9186 8.78991C15.9755 8.96404 16.0796 9.11896 16.2193 9.23744C16.3591 9.35592 16.5289 9.43332 16.71 9.46102L20.922 10.111C21.0758 10.1347 21.2331 10.1218 21.3811 10.0733C21.529 10.0249 21.6635 9.94218 21.7735 9.83199C21.8834 9.7218 21.9659 9.58723 22.0141 9.4392C22.0623 9.29117 22.075 9.13385 22.051 8.98002L21.402 4.76902C21.3741 4.58806 21.2966 4.41837 21.1782 4.27876C21.0597 4.13915 20.9049 4.0351 20.7309 3.97813C20.5569 3.92116 20.3705 3.91352 20.1924 3.95604C20.0143 3.99856 19.8515 4.08959 19.722 4.21902L18.85 5.09202C16.9863 3.34963 14.5293 2.3818 11.978 2.38502C6.40098 2.38502 1.86298 6.92302 1.86298 12.5C1.86298 18.078 6.40098 22.615 11.978 22.615C16.906 22.615 21.096 19.097 21.943 14.25C21.9976 13.9365 21.9254 13.6142 21.7424 13.3539C21.5594 13.0936 21.2804 12.9167 20.967 12.862Z" fill="#909090"/>
</svg>
