<svg width="24" height="24" viewBox="0 0 24 24" fill="none" xmlns="http://www.w3.org/2000/svg">
<mask id="path-1-inside-1_0_566" fill="white">
<path fill-rule="evenodd" clip-rule="evenodd" d="M10.904 21.5269C11.57 21.9669 12.429 21.9669 13.094 21.5269C15.209 20.1309 19.814 16.7939 21.798 13.0599C24.413 8.13395 21.342 3.22095 17.282 3.22095C14.968 3.22095 13.576 4.42995 12.806 5.46895C12.7135 5.5962 12.5922 5.69976 12.4521 5.77117C12.3119 5.84258 12.1568 5.8798 11.9995 5.8798C11.8422 5.8798 11.6871 5.84258 11.5469 5.77117C11.4068 5.69976 11.2855 5.5962 11.193 5.46895C10.423 4.42995 9.031 3.22095 6.717 3.22095C2.657 3.22095 -0.414 8.13395 2.202 13.0599C4.184 16.7939 8.791 20.1309 10.904 21.5269"/>
</mask>
<path d="M13.094 21.5269L11.7168 19.4405L11.7145 19.442L13.094 21.5269ZM21.798 13.0599L24.0057 14.233L24.0061 14.2322L21.798 13.0599ZM12.806 5.46895L10.7974 3.98042L10.7905 3.98976L10.7837 3.99917L12.806 5.46895ZM11.193 5.46895L13.2153 3.99917L13.2085 3.98976L13.2016 3.98042L11.193 5.46895ZM2.202 13.0599L4.4102 11.8878L4.40996 11.8874L2.202 13.0599ZM9.52594 23.6128C11.0271 24.6046 12.9715 24.6057 14.4735 23.6119L11.7145 19.442C11.8865 19.3282 12.1129 19.3293 12.2821 19.4411L9.52594 23.6128ZM14.4712 23.6134C15.5874 22.8766 17.3718 21.6212 19.154 20.0405C20.9081 18.4848 22.8096 16.4841 24.0057 14.233L19.5903 11.8869C18.8024 13.3698 17.4094 14.9046 15.8363 16.2998C14.2912 17.6702 12.7156 18.7813 11.7168 19.4405L14.4712 23.6134ZM24.0061 14.2322C27.2999 8.02748 23.6475 0.720947 17.282 0.720947V5.72095C19.0365 5.72095 21.5261 8.24042 19.5899 11.8877L24.0061 14.2322ZM17.282 0.720947C13.9465 0.720947 11.8831 2.51547 10.7974 3.98042L14.8146 6.95748C15.2689 6.34442 15.9895 5.72095 17.282 5.72095V0.720947ZM10.7837 3.99917C10.9231 3.80734 11.1059 3.65122 11.3173 3.54357L13.5869 7.99877C14.0785 7.74831 14.5039 7.38506 14.8283 6.93872L10.7837 3.99917ZM11.3173 3.54357C11.5286 3.43592 11.7624 3.3798 11.9995 3.3798V8.3798C12.5513 8.3798 13.0952 8.24924 13.5869 7.99877L11.3173 3.54357ZM11.9995 3.3798C12.2366 3.3798 12.4704 3.43592 12.6817 3.54357L10.4121 7.99877C10.9038 8.24924 11.4477 8.3798 11.9995 8.3798V3.3798ZM12.6817 3.54357C12.8931 3.65121 13.0759 3.80734 13.2153 3.99917L9.17068 6.93872C9.49508 7.38507 9.92048 7.74831 10.4121 7.99877L12.6817 3.54357ZM13.2016 3.98042C12.1159 2.51547 10.0525 0.720947 6.717 0.720947V5.72095C8.00946 5.72095 8.73012 6.34442 9.18445 6.95748L13.2016 3.98042ZM6.717 0.720947C0.35138 0.720947 -3.3011 8.02768 -0.00596338 14.2325L4.40996 11.8874C2.4731 8.24022 4.96262 5.72095 6.717 5.72095V0.720947ZM-0.00620261 14.2321C1.18906 16.4839 3.091 18.4849 4.84503 20.0405C6.62718 21.6212 8.41144 22.8765 9.52592 23.6128L12.2821 19.4411C11.2836 18.7814 9.70782 17.6702 8.16273 16.2998C6.5895 14.9045 5.19694 13.37 4.4102 11.8878L-0.00620261 14.2321Z" fill="#D9D9D9" mask="url(#path-1-inside-1_0_566)"/>
</svg>
