<svg width="24" height="24" viewBox="0 0 24 24" fill="none" xmlns="http://www.w3.org/2000/svg">
<mask id="path-1-inside-1_296_26" fill="white">
<path fill-rule="evenodd" clip-rule="evenodd" d="M21.069 8.20407L12.622 1.48707C12.4453 1.34623 12.226 1.26953 12 1.26953C11.774 1.26953 11.5547 1.34623 11.378 1.48707L2.92999 8.20407C2.69454 8.39135 2.50437 8.62933 2.37365 8.90029C2.24293 9.17126 2.17502 9.46822 2.17499 9.76907V19.1871C2.17499 19.8236 2.42784 20.434 2.87793 20.8841C3.32802 21.3342 3.93847 21.5871 4.57499 21.5871H9.99999V16.8351C9.99999 16.5699 10.1053 16.3155 10.2929 16.128C10.4804 15.9404 10.7348 15.8351 11 15.8351H13C13.2652 15.8351 13.5196 15.9404 13.7071 16.128C13.8946 16.3155 14 16.5699 14 16.8351V21.5871H19.424C20.0605 21.5871 20.671 21.3342 21.121 20.8841C21.5711 20.434 21.824 19.8236 21.824 19.1871V9.77007C21.824 9.46922 21.756 9.17226 21.6253 8.90129C21.4946 8.63033 21.3044 8.39235 21.069 8.20507"/>
</mask>
<path d="M12.622 1.48707L11.0639 3.44213L11.066 3.44382L12.622 1.48707ZM12 1.26953V-1.23047V1.26953ZM11.378 1.48707L12.9339 3.44391L12.9361 3.44213L11.378 1.48707ZM2.92999 8.20407L1.3741 6.24723L1.37374 6.24752L2.92999 8.20407ZM2.17499 9.76907L-0.325012 9.76877V9.76907H2.17499ZM9.99999 21.5871V24.0871H12.5V21.5871H9.99999ZM14 21.5871H11.5V24.0871H14V21.5871ZM19.424 21.5871V24.0871V21.5871ZM21.824 9.77007H24.324V9.76977L21.824 9.77007ZM22.625 6.24732L14.178 -0.469682L11.066 3.44382L19.513 10.1608L22.625 6.24732ZM14.1801 -0.467994C13.5607 -0.96165 12.7921 -1.23047 12 -1.23047V3.76953C11.6599 3.76953 11.3298 3.6541 11.0639 3.44213L14.1801 -0.467994ZM12 -1.23047C11.2079 -1.23047 10.4393 -0.96165 9.81987 -0.467994L12.9361 3.44213C12.6701 3.6541 12.3401 3.76953 12 3.76953V-1.23047ZM9.8221 -0.469771L1.3741 6.24723L4.48587 10.1609L12.9339 3.44391L9.8221 -0.469771ZM1.37374 6.24752C0.843977 6.6689 0.416103 7.20436 0.121981 7.81403L4.62532 9.98656C4.59264 10.0543 4.5451 10.1138 4.48624 10.1606L1.37374 6.24752ZM0.121981 7.81403C-0.17214 8.42369 -0.324931 9.09186 -0.325012 9.76877L4.67499 9.76937C4.67498 9.84458 4.658 9.91882 4.62532 9.98656L0.121981 7.81403ZM-0.325012 9.76907V19.1871H4.67499V9.76907H-0.325012ZM-0.325012 19.1871C-0.325012 20.4866 0.191237 21.733 1.11016 22.6519L4.6457 19.1164C4.66445 19.1351 4.67499 19.1605 4.67499 19.1871H-0.325012ZM1.11016 22.6519C2.02909 23.5708 3.27543 24.0871 4.57499 24.0871V19.0871C4.60151 19.0871 4.62695 19.0976 4.6457 19.1164L1.11016 22.6519ZM4.57499 24.0871H9.99999V19.0871H4.57499V24.0871ZM12.5 21.5871V16.8351H7.49999V21.5871H12.5ZM12.5 16.8351C12.5 17.2329 12.3419 17.6144 12.0606 17.8957L8.52511 14.3602C7.86874 15.0166 7.49999 15.9068 7.49999 16.8351H12.5ZM12.0606 17.8957C11.7793 18.177 11.3978 18.3351 11 18.3351V13.3351C10.0717 13.3351 9.18149 13.7038 8.52511 14.3602L12.0606 17.8957ZM11 18.3351H13V13.3351H11V18.3351ZM13 18.3351C12.6022 18.3351 12.2206 18.177 11.9393 17.8957L15.4749 14.3602C14.8185 13.7038 13.9282 13.3351 13 13.3351V18.3351ZM11.9393 17.8957C11.658 17.6144 11.5 17.2329 11.5 16.8351H16.5C16.5 15.9068 16.1312 15.0166 15.4749 14.3602L11.9393 17.8957ZM11.5 16.8351V21.5871H16.5V16.8351H11.5ZM14 24.0871H19.424V19.0871H14V24.0871ZM19.424 24.0871C20.7235 24.0871 21.9699 23.5708 22.8888 22.6519L19.3533 19.1164C19.372 19.0976 19.3975 19.0871 19.424 19.0871V24.0871ZM22.8888 22.6519C23.8077 21.733 24.324 20.4866 24.324 19.1871H19.324C19.324 19.1605 19.3345 19.1351 19.3533 19.1164L22.8888 22.6519ZM24.324 19.1871V9.77007H19.324V19.1871H24.324ZM24.324 9.76977C24.3239 9.09286 24.1711 8.42469 23.877 7.81502L19.3737 9.98756C19.341 9.91982 19.324 9.84558 19.324 9.77037L24.324 9.76977ZM23.877 7.81502C23.5829 7.20536 23.155 6.6699 22.6252 6.24852L19.5127 10.1616C19.4539 10.1148 19.4063 10.0553 19.3737 9.98756L23.877 7.81502Z" fill="#909090" mask="url(#path-1-inside-1_296_26)"/>
</svg>
