<svg width="24" height="24" viewBox="0 0 24 24" fill="none" xmlns="http://www.w3.org/2000/svg">
<path fill-rule="evenodd" clip-rule="evenodd" d="M20.966 10.8001H6.93L12.381 5.34911C12.4939 5.23802 12.5837 5.10566 12.6452 4.95968C12.7068 4.81371 12.7388 4.65699 12.7394 4.49859C12.74 4.34018 12.7093 4.18321 12.649 4.03674C12.5887 3.89027 12.5 3.75718 12.3879 3.64517C12.2759 3.53316 12.1428 3.44444 11.9964 3.38411C11.8499 3.32379 11.6929 3.29307 11.5345 3.29371C11.3761 3.29436 11.2194 3.32636 11.0734 3.38787C10.9275 3.44938 10.7951 3.53919 10.684 3.65211L3.184 11.1521C3.181 11.1541 3.18 11.1581 3.177 11.1611C3.01249 11.329 2.9009 11.5415 2.8561 11.7723C2.8113 12.003 2.83526 12.2419 2.925 12.4591C2.985 12.6021 3.07 12.7291 3.177 12.8391L3.184 12.8491L10.684 20.3491C10.919 20.5831 11.226 20.6991 11.532 20.6991C11.7693 20.6991 12.0012 20.6287 12.1985 20.497C12.3958 20.3652 12.5496 20.1778 12.6405 19.9587C12.7313 19.7395 12.7552 19.4983 12.709 19.2655C12.6628 19.0328 12.5487 18.819 12.381 18.6511L6.931 13.2001H20.967C21.2853 13.2001 21.5905 13.0737 21.8155 12.8486C22.0406 12.6236 22.167 12.3184 22.167 12.0001C22.167 11.6819 22.0406 11.3766 21.8155 11.1516C21.5905 10.9265 21.2853 10.8001 20.967 10.8001" fill="#909090"/>
</svg>
