<svg width="16" height="16" viewBox="0 0 16 16" fill="none" xmlns="http://www.w3.org/2000/svg">
<g clip-path="url(#clip0_0_562)">
<path fill-rule="evenodd" clip-rule="evenodd" d="M10.8047 9.86208C10.8666 9.92398 10.9157 9.99746 10.9491 10.0783C10.9826 10.1592 10.9999 10.2459 10.9999 10.3334C10.9999 10.4209 10.9826 10.5076 10.9491 10.5885C10.9157 10.6694 10.8666 10.7429 10.8047 10.8047C10.7428 10.8666 10.6693 10.9157 10.5884 10.9492C10.5075 10.9827 10.4209 11 10.3333 11C10.2458 11 10.1591 10.9827 10.0782 10.9492C9.99737 10.9157 9.92389 10.8666 9.86199 10.8047L7.99999 8.94275L6.13799 10.8047C6.07622 10.8669 6.00278 10.9162 5.92189 10.9498C5.841 10.9835 5.75426 11.0008 5.66666 11.0008C5.57905 11.0008 5.49231 10.9835 5.41142 10.9498C5.33053 10.9162 5.25709 10.8669 5.19532 10.8047C5.13336 10.7429 5.0842 10.6694 5.05066 10.5885C5.01712 10.5077 4.99986 10.421 4.99986 10.3334C4.99986 10.2459 5.01712 10.1592 5.05066 10.0783C5.0842 9.99741 5.13336 9.92394 5.19532 9.86208L7.05732 8.00008L5.19532 6.13808C5.13343 6.07618 5.08433 6.0027 5.05083 5.92183C5.01733 5.84096 5.00009 5.75428 5.00009 5.66675C5.00009 5.57921 5.01733 5.49254 5.05083 5.41166C5.08433 5.33079 5.13343 5.25731 5.19532 5.19541C5.25722 5.13352 5.3307 5.08442 5.41157 5.05092C5.49244 5.01742 5.57912 5.00018 5.66666 5.00018C5.75419 5.00018 5.84087 5.01742 5.92174 5.05092C6.00261 5.08442 6.07609 5.13352 6.13799 5.19541L7.99999 7.05741L9.86199 5.19541C9.92389 5.13352 9.99737 5.08442 10.0782 5.05092C10.1591 5.01742 10.2458 5.00018 10.3333 5.00018C10.4209 5.00018 10.5075 5.01742 10.5884 5.05092C10.6693 5.08442 10.7428 5.13352 10.8047 5.19541C10.8666 5.25731 10.9157 5.33079 10.9491 5.41166C10.9826 5.49254 10.9999 5.57921 10.9999 5.66675C10.9999 5.75428 10.9826 5.84096 10.9491 5.92183C10.9157 6.0027 10.8666 6.07618 10.8047 6.13808L8.94266 8.00008L10.8047 9.86208ZM7.99999 0.666748C3.94999 0.666748 0.666656 3.95008 0.666656 8.00008C0.666656 12.0501 3.94999 15.3334 7.99999 15.3334C12.05 15.3334 15.3333 12.0501 15.3333 8.00008C15.3333 3.95008 12.05 0.666748 7.99999 0.666748Z" fill="#D9D9D9"/>
</g>
<defs>
<clipPath id="clip0_0_562">
<rect width="16" height="16" fill="white"/>
</clipPath>
</defs>
</svg>
