<svg width="20" height="20" viewBox="0 0 20 20" fill="none" xmlns="http://www.w3.org/2000/svg">
<path fill-rule="evenodd" clip-rule="evenodd" d="M7.18752 16.75C6.90002 16.75 6.61252 16.6375 6.38752 16.425C6.1776 16.2142 6.05975 15.9288 6.05975 15.6313C6.05975 15.3338 6.1776 15.0484 6.38752 14.8375L11.225 10L6.38752 5.17503C6.1776 4.96419 6.05975 4.67879 6.05975 4.38128C6.05975 4.08377 6.1776 3.79836 6.38752 3.58753C6.59835 3.37762 6.88375 3.25977 7.18127 3.25977C7.47878 3.25977 7.76418 3.37762 7.97502 3.58753L13.6 9.21253C13.8099 9.42336 13.9278 9.70877 13.9278 10.0063C13.9278 10.3038 13.8099 10.5892 13.6 10.8L7.97502 16.425C7.76252 16.6375 7.47502 16.75 7.18752 16.75Z" fill="black"/>
</svg>
