<svg width="14" height="15" viewBox="0 0 14 15" fill="none" xmlns="http://www.w3.org/2000/svg">
<g clip-path="url(#clip0_64_501)">
<path fill-rule="evenodd" clip-rule="evenodd" d="M7 7.93283C6.78957 7.93687 6.58046 7.89892 6.38488 7.82118C6.1893 7.74345 6.01118 7.6275 5.86094 7.48012C5.7107 7.33274 5.59135 7.15688 5.50988 6.96282C5.4284 6.76877 5.38644 6.56042 5.38644 6.34996C5.38644 6.1395 5.4284 5.93115 5.50988 5.7371C5.59135 5.54304 5.7107 5.36718 5.86094 5.2198C6.01118 5.07241 6.1893 4.95647 6.38488 4.87873C6.58046 4.801 6.78957 4.76304 7 4.76708C7.41454 4.77504 7.80942 4.94531 8.09977 5.24129C8.39012 5.53727 8.55277 5.93534 8.55277 6.34996C8.55277 6.76458 8.39012 7.16265 8.09977 7.45863C7.80942 7.75461 7.41454 7.92488 7 7.93283ZM5.761 1.10492C3.27016 1.66083 1.52366 4.00525 1.62166 6.55558C1.69866 8.55875 2.92775 10.3508 6.58466 13.8665C6.81566 14.0882 7.1855 14.0893 7.41708 13.8671C11.1994 10.2312 12.3847 8.43917 12.3847 6.34967C12.3847 2.97217 9.27383 0.320918 5.761 1.1055" fill="#A773FD"/>
</g>
<defs>
<clipPath id="clip0_64_501">
<rect width="14" height="14" fill="white" transform="translate(0 0.5)"/>
</clipPath>
</defs>
</svg>
