<svg width="24" height="24" viewBox="0 0 24 24" fill="none" xmlns="http://www.w3.org/2000/svg">
<mask id="path-1-inside-1_0_431" fill="white">
<path fill-rule="evenodd" clip-rule="evenodd" d="M16.887 6.64401C16.8871 7.28683 16.7605 7.92337 16.5146 8.51729C16.2686 9.1112 15.9081 9.65086 15.4536 10.1054C14.9991 10.56 14.4595 10.9207 13.8657 11.1667C13.2718 11.4128 12.6353 11.5394 11.9925 11.5395C10.6943 11.5396 9.44914 11.024 8.53105 10.1062C7.61297 9.18826 7.09712 7.94325 7.09699 6.64501C7.09692 6.00219 7.22347 5.36565 7.46941 4.77174C7.71534 4.17782 8.07585 3.63817 8.53035 3.18358C9.44824 2.26549 10.6933 1.74964 11.9915 1.74951C13.2897 1.74938 14.5348 2.26497 15.4529 3.18287C16.371 4.10077 16.8869 5.34578 16.887 6.64401M11.992 13.037C4.94299 13.037 2.20099 17.523 2.20099 19.61C2.20099 21.696 8.03799 22.252 11.992 22.252C15.946 22.252 21.783 21.696 21.783 19.61C21.783 17.523 19.041 13.037 11.992 13.037Z"/>
</mask>
<path d="M11.9925 11.5395L11.9927 14.0395L11.9925 11.5395ZM7.09699 6.64501L9.59699 6.64476L7.09699 6.64501ZM8.53035 3.18358L6.7624 1.41599L8.53035 3.18358ZM14.387 6.64427C14.387 6.95879 14.3251 7.27023 14.2048 7.56081L18.8244 9.47376C19.1959 8.57652 19.3871 7.61488 19.387 6.64376L14.387 6.64427ZM14.2048 7.56081C14.0844 7.8514 13.9081 8.11544 13.6857 8.33786L17.2216 11.873C17.9082 11.1863 18.4528 10.371 18.8244 9.47376L14.2048 7.56081ZM13.6857 8.33786C13.4633 8.56028 13.1993 8.73672 12.9087 8.85711L14.8226 13.4763C15.7198 13.1046 16.535 12.5598 17.2216 11.873L13.6857 8.33786ZM12.9087 8.85711C12.6182 8.9775 12.3067 9.03948 11.9922 9.03951L11.9927 14.0395C12.9639 14.0394 13.9255 13.848 14.8226 13.4763L12.9087 8.85711ZM11.9922 9.03951C11.357 9.03958 10.7478 8.78731 10.2986 8.33821L6.76347 11.8741C8.15044 13.2608 10.0315 14.0397 11.9927 14.0395L11.9922 9.03951ZM10.2986 8.33821C9.84945 7.8891 9.59705 7.27995 9.59699 6.64476L4.59699 6.64527C4.59719 8.60654 5.3765 10.4874 6.76347 11.8741L10.2986 8.33821ZM9.59699 6.64476C9.59696 6.33024 9.65887 6.0188 9.7792 5.72821L5.15961 3.81527C4.78807 4.71251 4.59689 5.67414 4.59699 6.64527L9.59699 6.64476ZM9.7792 5.72821C9.89953 5.43762 10.0759 5.17358 10.2983 4.95116L6.7624 1.41599C6.07578 2.10275 5.53115 2.91803 5.15961 3.81527L9.7792 5.72821ZM10.2983 4.95116C10.7474 4.50197 11.3566 4.24958 11.9917 4.24951L11.9912 -0.750488C10.03 -0.750288 8.14909 0.0290178 6.7624 1.41599L10.2983 4.95116ZM11.9917 4.24951C12.6269 4.24945 13.2361 4.50171 13.6853 4.95082L17.2205 1.41492C15.8335 0.0282328 13.9525 -0.750689 11.9912 -0.750488L11.9917 4.24951ZM13.6853 4.95082C14.1345 5.39992 14.3869 6.00907 14.387 6.64427L19.387 6.64376C19.3868 4.68248 18.6075 2.80161 17.2205 1.41492L13.6853 4.95082ZM11.992 10.537C3.8654 10.537 -0.299011 15.8575 -0.299011 19.61H4.70099C4.70099 19.6133 4.70205 19.5404 4.74293 19.3919C4.78239 19.2485 4.85148 19.0623 4.96281 18.8458C5.18576 18.4123 5.55461 17.9031 6.10721 17.4154C7.18224 16.4668 9.02852 15.537 11.992 15.537V10.537ZM-0.299011 19.61C-0.299011 21.4884 1.0507 22.5721 1.94127 23.0773C2.88789 23.6143 4.04095 23.9432 5.11254 24.1625C7.30112 24.6104 9.93774 24.752 11.992 24.752V19.752C10.0922 19.752 7.83336 19.6157 6.11493 19.264C5.23303 19.0836 4.67971 18.8823 4.40833 18.7284C4.0809 18.5426 4.70099 18.7747 4.70099 19.61H-0.299011ZM11.992 24.752C14.0462 24.752 16.6829 24.6104 18.8714 24.1625C19.943 23.9432 21.0961 23.6143 22.0427 23.0773C22.9333 22.5721 24.283 21.4884 24.283 19.61H19.283C19.283 18.7747 19.9031 18.5426 19.5756 18.7284C19.3043 18.8823 18.7509 19.0836 17.869 19.264C16.1506 19.6157 13.8917 19.752 11.992 19.752V24.752ZM24.283 19.61C24.283 15.8575 20.1186 10.537 11.992 10.537V15.537C14.9555 15.537 16.8017 16.4668 17.8768 17.4154C18.4294 17.9031 18.7982 18.4123 19.0212 18.8458C19.1325 19.0623 19.2016 19.2485 19.2411 19.3919C19.2819 19.5404 19.283 19.6133 19.283 19.61H24.283Z" fill="#909090" mask="url(#path-1-inside-1_0_431)"/>
</svg>
